<svg width="42" height="51" viewBox="0 0 42 51" fill="none" xmlns="http://www.w3.org/2000/svg">
<path d="M0.35072 49.2554C0.0872322 49.1727 -0.0593747 48.8921 0.0232633 48.6287C0.105901 48.3652 0.386491 48.2186 0.649979 48.3012L0.500349 48.7783L0.35072 49.2554ZM36.2032 0.328121C36.2983 0.0688418 36.5855 -0.0643132 36.8448 0.0307093L41.0699 1.5792C41.3292 1.67422 41.4624 1.96144 41.3673 2.22072C41.2723 2.47999 40.9851 2.61315 40.7258 2.51813L36.9701 1.14169L35.5937 4.89741C35.4987 5.15669 35.2114 5.28985 34.9522 5.19482C34.6929 5.0998 34.5597 4.81258 34.6547 4.55331L36.2032 0.328121ZM0.500349 48.7783L0.649979 48.3012C23.0762 55.3348 50.4299 31.3634 36.2191 0.710476L36.6727 0.500174L37.1263 0.289873C51.7037 31.7334 23.6023 56.5478 0.35072 49.2554L0.500349 48.7783Z" fill="white"/>
</svg>
