<svg width="23" height="23" viewBox="0 0 23 23" fill="none" xmlns="http://www.w3.org/2000/svg">
<path d="M16.2917 13.4167C16.5458 13.4167 16.7896 13.3157 16.9693 13.136C17.149 12.9563 17.25 12.7125 17.25 12.4583C17.25 12.2042 17.149 11.9604 16.9693 11.7807C16.7896 11.601 16.5458 11.5 16.2917 11.5C16.0375 11.5 15.7937 11.601 15.614 11.7807C15.4343 11.9604 15.3333 12.2042 15.3333 12.4583C15.3333 12.7125 15.4343 12.9563 15.614 13.136C15.7937 13.3157 16.0375 13.4167 16.2917 13.4167ZM16.2917 17.25C16.5458 17.25 16.7896 17.149 16.9693 16.9693C17.149 16.7896 17.25 16.5458 17.25 16.2917C17.25 16.0375 17.149 15.7937 16.9693 15.614C16.7896 15.4343 16.5458 15.3333 16.2917 15.3333C16.0375 15.3333 15.7937 15.4343 15.614 15.614C15.4343 15.7937 15.3333 16.0375 15.3333 16.2917C15.3333 16.5458 15.4343 16.7896 15.614 16.9693C15.7937 17.149 16.0375 17.25 16.2917 17.25ZM12.4583 12.4583C12.4583 12.7125 12.3574 12.9563 12.1776 13.136C11.9979 13.3157 11.7542 13.4167 11.5 13.4167C11.2458 13.4167 11.0021 13.3157 10.8224 13.136C10.6426 12.9563 10.5417 12.7125 10.5417 12.4583C10.5417 12.2042 10.6426 11.9604 10.8224 11.7807C11.0021 11.601 11.2458 11.5 11.5 11.5C11.7542 11.5 11.9979 11.601 12.1776 11.7807C12.3574 11.9604 12.4583 12.2042 12.4583 12.4583ZM12.4583 16.2917C12.4583 16.5458 12.3574 16.7896 12.1776 16.9693C11.9979 17.149 11.7542 17.25 11.5 17.25C11.2458 17.25 11.0021 17.149 10.8224 16.9693C10.6426 16.7896 10.5417 16.5458 10.5417 16.2917C10.5417 16.0375 10.6426 15.7937 10.8224 15.614C11.0021 15.4343 11.2458 15.3333 11.5 15.3333C11.7542 15.3333 11.9979 15.4343 12.1776 15.614C12.3574 15.7937 12.4583 16.0375 12.4583 16.2917ZM6.70833 13.4167C6.9625 13.4167 7.20625 13.3157 7.38598 13.136C7.5657 12.9563 7.66667 12.7125 7.66667 12.4583C7.66667 12.2042 7.5657 11.9604 7.38598 11.7807C7.20625 11.601 6.9625 11.5 6.70833 11.5C6.45417 11.5 6.21041 11.601 6.03069 11.7807C5.85097 11.9604 5.75 12.2042 5.75 12.4583C5.75 12.7125 5.85097 12.9563 6.03069 13.136C6.21041 13.3157 6.45417 13.4167 6.70833 13.4167ZM6.70833 17.25C6.9625 17.25 7.20625 17.149 7.38598 16.9693C7.5657 16.7896 7.66667 16.5458 7.66667 16.2917C7.66667 16.0375 7.5657 15.7937 7.38598 15.614C7.20625 15.4343 6.9625 15.3333 6.70833 15.3333C6.45417 15.3333 6.21041 15.4343 6.03069 15.614C5.85097 15.7937 5.75 16.0375 5.75 16.2917C5.75 16.5458 5.85097 16.7896 6.03069 16.9693C6.21041 17.149 6.45417 17.25 6.70833 17.25Z" fill="#FFE595"/>
<path fill-rule="evenodd" clip-rule="evenodd" d="M6.70819 1.67706C6.89881 1.67706 7.08163 1.75279 7.21642 1.88758C7.35121 2.02237 7.42694 2.20519 7.42694 2.39581V3.12702C8.06136 3.11456 8.75998 3.11456 9.52856 3.11456H13.4702C14.2397 3.11456 14.9384 3.11456 15.5728 3.12702V2.39581C15.5728 2.20519 15.6485 2.02237 15.7833 1.88758C15.9181 1.75279 16.1009 1.67706 16.2915 1.67706C16.4821 1.67706 16.665 1.75279 16.7998 1.88758C16.9345 2.02237 17.0103 2.20519 17.0103 2.39581V3.18835C17.2594 3.20752 17.4952 3.23148 17.7185 3.26119C18.8417 3.4126 19.7511 3.73077 20.4689 4.4476C21.1857 5.1654 21.5039 6.07485 21.6553 7.19802C21.8019 8.29052 21.8019 9.6849 21.8019 11.4463V13.4703C21.8019 15.2317 21.8019 16.6271 21.6553 17.7186C21.5039 18.8418 21.1857 19.7512 20.4689 20.469C19.7511 21.1859 18.8417 21.504 17.7185 21.6554C16.626 21.8021 15.2316 21.8021 13.4702 21.8021H9.53048C7.76906 21.8021 6.37373 21.8021 5.28219 21.6554C4.15902 21.504 3.24956 21.1859 2.53177 20.469C1.81494 19.7512 1.49677 18.8418 1.34536 17.7186C1.19873 16.6261 1.19873 15.2317 1.19873 13.4703V11.4463C1.19873 9.6849 1.19873 8.28956 1.34536 7.19802C1.49677 6.07485 1.81494 5.1654 2.53177 4.4476C3.24956 3.73077 4.15902 3.4126 5.28219 3.26119C5.50548 3.23148 5.74219 3.20752 5.9904 3.18835V2.39581C5.9904 2.20535 6.06599 2.02268 6.20058 1.88792C6.33516 1.75315 6.51773 1.67732 6.70819 1.67706ZM5.47194 4.68623C4.50881 4.8156 3.95298 5.05902 3.54761 5.4644C3.14223 5.86977 2.89881 6.4256 2.76944 7.38969C2.7474 7.5526 2.72919 7.7251 2.71386 7.90623H20.2859C20.2705 7.72415 20.2523 7.5526 20.2303 7.38873C20.1009 6.4256 19.8575 5.86977 19.4521 5.4644C19.0467 5.05902 18.4909 4.8156 17.5268 4.68623C16.5426 4.55398 15.2441 4.55206 13.4165 4.55206H9.58319C7.75565 4.55206 6.45806 4.55398 5.47194 4.68623ZM2.63527 11.5C2.63527 10.6816 2.63527 9.96952 2.64773 9.34373H20.352C20.3644 9.96952 20.3644 10.6816 20.3644 11.5V13.4166C20.3644 15.2442 20.3625 16.5427 20.2303 17.5279C20.1009 18.491 19.8575 19.0469 19.4521 19.4522C19.0467 19.8576 18.4909 20.101 17.5268 20.2304C16.5426 20.3626 15.2441 20.3646 13.4165 20.3646H9.58319C7.75565 20.3646 6.45806 20.3626 5.47194 20.2304C4.50881 20.101 3.95298 19.8576 3.54761 19.4522C3.14223 19.0469 2.89881 18.491 2.76944 17.5269C2.63719 16.5427 2.63527 15.2442 2.63527 13.4166V11.5Z" fill="#FFE595"/>
</svg>
