<svg width="18" height="22" viewBox="0 0 18 22" fill="none" xmlns="http://www.w3.org/2000/svg">
<path d="M15.84 9.625C16.14 9.625 16.4213 9.67871 16.6838 9.78613C16.9463 9.89355 17.175 10.0404 17.37 10.2266C17.565 10.4128 17.7188 10.6312 17.8313 10.8818C17.9438 11.1325 18 11.401 18 11.6875V15.8125C18 16.6647 17.8313 17.4668 17.4938 18.2188C17.1562 18.9707 16.6912 19.626 16.0988 20.1846C15.5063 20.7432 14.82 21.1836 14.04 21.5059C13.26 21.8281 12.42 21.9928 11.52 22C10.44 22 9.435 21.8031 8.505 21.4092C7.575 21.0153 6.7275 20.4567 5.9625 19.7334L0.6525 14.6631C0.4425 14.4626 0.28125 14.2298 0.16875 13.9648C0.05625 13.6999 0 13.4277 0 13.1484C0 12.8477 0.06 12.5684 0.18 12.3105C0.3 12.0527 0.46125 11.8236 0.66375 11.623C0.86625 11.4225 1.1025 11.2721 1.3725 11.1719C1.6425 11.0716 1.935 11.0143 2.25 11C2.865 11 3.39375 11.2113 3.83625 11.6338L5.04 12.7725V9.16309C4.5975 8.96257 4.2 8.71191 3.8475 8.41113C3.495 8.11035 3.195 7.77018 2.9475 7.39062C2.7 7.01107 2.505 6.60286 2.3625 6.16602C2.22 5.72917 2.1525 5.27799 2.16 4.8125C2.16 4.14648 2.29125 3.52344 2.55375 2.94336C2.81625 2.36328 3.17625 1.85124 3.63375 1.40723C4.09125 0.963216 4.62375 0.619466 5.23125 0.375977C5.83875 0.132487 6.495 0.00716146 7.2 0C7.8975 0 8.55 0.125326 9.1575 0.375977C9.765 0.626628 10.3013 0.970378 10.7663 1.40723C11.2313 1.84408 11.5913 2.35254 11.8463 2.93262C12.1013 3.5127 12.2325 4.13932 12.24 4.8125C12.24 5.47852 12.1013 6.11589 11.8238 6.72461C11.5463 7.33333 11.1525 7.86686 10.6425 8.3252C10.905 8.38965 11.1413 8.49707 11.3513 8.64746C11.5613 8.79785 11.745 8.98405 11.9025 9.20605C12.24 9.02702 12.5925 8.9375 12.96 8.9375C13.335 8.9375 13.6838 9.01986 14.0063 9.18457C14.3288 9.34928 14.5875 9.58561 14.7825 9.89355C15.12 9.71452 15.4725 9.625 15.84 9.625ZM3.6 4.8125C3.6 5.34961 3.7275 5.86165 3.9825 6.34863C4.2375 6.83561 4.59 7.24023 5.04 7.5625V4.8125C5.04 4.52604 5.09625 4.25749 5.20875 4.00684C5.32125 3.75618 5.475 3.53776 5.67 3.35156C5.865 3.16536 6.09375 3.01855 6.35625 2.91113C6.61875 2.80371 6.9 2.75 7.2 2.75C7.5 2.75 7.78125 2.80371 8.04375 2.91113C8.30625 3.01855 8.535 3.16536 8.73 3.35156C8.925 3.53776 9.07875 3.75618 9.19125 4.00684C9.30375 4.25749 9.36 4.52604 9.36 4.8125V7.5625C9.81 7.24023 10.1625 6.83561 10.4175 6.34863C10.6725 5.86165 10.8 5.34961 10.8 4.8125C10.8 4.33984 10.7063 3.89583 10.5188 3.48047C10.3313 3.0651 10.0725 2.70345 9.7425 2.39551C9.4125 2.08757 9.03 1.84049 8.595 1.6543C8.16 1.4681 7.695 1.375 7.2 1.375C6.705 1.375 6.24 1.46452 5.805 1.64355C5.37 1.82259 4.9875 2.06966 4.6575 2.38477C4.3275 2.69987 4.06875 3.0651 3.88125 3.48047C3.69375 3.89583 3.6 4.33984 3.6 4.8125ZM16.56 11.6875C16.56 11.5013 16.4888 11.3402 16.3463 11.2041C16.2038 11.068 16.035 11 15.84 11C15.585 11 15.4088 11.068 15.3113 11.2041C15.2138 11.3402 15.1538 11.5085 15.1313 11.709C15.1088 11.9095 15.105 12.1315 15.12 12.375C15.135 12.6185 15.135 12.8369 15.12 13.0303C15.105 13.2236 15.045 13.3955 14.94 13.5459C14.835 13.6963 14.655 13.7643 14.4 13.75C14.1225 13.75 13.935 13.6676 13.8375 13.5029C13.74 13.3382 13.68 13.1234 13.6575 12.8584C13.635 12.5934 13.6425 12.3177 13.68 12.0312C13.7175 11.7448 13.725 11.4691 13.7025 11.2041C13.68 10.9391 13.6238 10.7279 13.5338 10.5703C13.4438 10.4128 13.2525 10.3268 12.96 10.3125C12.705 10.3125 12.5288 10.3805 12.4313 10.5166C12.3338 10.6527 12.2738 10.821 12.2513 11.0215C12.2288 11.222 12.225 11.444 12.24 11.6875C12.255 11.931 12.255 12.1494 12.24 12.3428C12.225 12.5361 12.165 12.708 12.06 12.8584C11.955 13.0088 11.775 13.0768 11.52 13.0625C11.2425 13.0625 11.055 12.9801 10.9575 12.8154C10.86 12.6507 10.8 12.4359 10.7775 12.1709C10.755 11.9059 10.7625 11.6302 10.8 11.3438C10.8375 11.0573 10.845 10.7816 10.8225 10.5166C10.8 10.2516 10.7438 10.0404 10.6538 9.88281C10.5638 9.72526 10.3725 9.63932 10.08 9.625C9.825 9.625 9.64875 9.69303 9.55125 9.8291C9.45375 9.96517 9.39375 10.1335 9.37125 10.334C9.34875 10.5345 9.345 10.7565 9.36 11C9.375 11.2435 9.375 11.4619 9.36 11.6553C9.345 11.8486 9.285 12.0205 9.18 12.1709C9.075 12.3213 8.895 12.3893 8.64 12.375C8.445 12.375 8.27625 12.307 8.13375 12.1709C7.99125 12.0348 7.92 11.8737 7.92 11.6875V4.8125C7.92 4.6263 7.84875 4.46517 7.70625 4.3291C7.56375 4.19303 7.395 4.125 7.2 4.125C7.005 4.125 6.83625 4.19303 6.69375 4.3291C6.55125 4.46517 6.48 4.6263 6.48 4.8125V13.2666C6.48 13.4313 6.45 13.5817 6.39 13.7178C6.33 13.8538 6.24375 13.9792 6.13125 14.0938C6.01875 14.2083 5.8875 14.2907 5.7375 14.3408C5.5875 14.391 5.43 14.4232 5.265 14.4375C5.1 14.4375 4.9425 14.4089 4.7925 14.3516C4.6425 14.2943 4.50375 14.2083 4.37625 14.0938L2.8125 12.6006C2.655 12.4502 2.4675 12.375 2.25 12.375C2.0325 12.375 1.845 12.4502 1.6875 12.6006C1.53 12.751 1.4475 12.9336 1.44 13.1484C1.44 13.3561 1.51875 13.5352 1.67625 13.6855L6.98625 18.7666C7.61625 19.3682 8.30625 19.8265 9.05625 20.1416C9.80625 20.4567 10.6275 20.6178 11.52 20.625C12.2175 20.625 12.87 20.4997 13.4775 20.249C14.085 19.9984 14.6175 19.6546 15.075 19.2178C15.5325 18.7809 15.8925 18.2725 16.155 17.6924C16.4175 17.1123 16.5525 16.4857 16.56 15.8125V11.6875Z" fill="#4A381C"/>
</svg>
